<mxfile host="app.diagrams.net" modified="2023-12-29T17:29:41.221Z" agent="Mozilla/5.0 (Windows NT 10.0; Win64; x64) AppleWebKit/537.36 (KHTML, like Gecko) Chrome/119.0.0.0 Safari/537.36 OPR/105.0.0.0" etag="ObdDaunvk-ajR9zJbkC0" version="22.1.16" type="device">
  <diagram name="Страница — 1" id="YA0gbOQREJx_1X5DMT34">
    <mxGraphModel dx="2733" dy="1200" grid="1" gridSize="10" guides="1" tooltips="1" connect="1" arrows="1" fold="1" page="1" pageScale="1" pageWidth="827" pageHeight="1169" math="0" shadow="0">
      <root>
        <mxCell id="0" />
        <mxCell id="1" parent="0" />
        <mxCell id="fIZk-Au_TW16lUrg5-2D-3" value="" style="group" vertex="1" connectable="0" parent="1">
          <mxGeometry x="12" y="1180" width="803" height="520" as="geometry" />
        </mxCell>
        <mxCell id="fIZk-Au_TW16lUrg5-2D-47" value="" style="group" vertex="1" connectable="0" parent="fIZk-Au_TW16lUrg5-2D-3">
          <mxGeometry width="803" height="520" as="geometry" />
        </mxCell>
        <mxCell id="BQGbku_7ywCpy-vDLekk-100" value="&lt;font style=&quot;font-size: 18px;&quot;&gt;&lt;b&gt;note_classes.py&lt;/b&gt;&lt;/font&gt;" style="shape=module;align=left;spacingLeft=20;align=center;verticalAlign=top;whiteSpace=wrap;html=1;" vertex="1" parent="fIZk-Au_TW16lUrg5-2D-47">
          <mxGeometry width="803" height="520" as="geometry" />
        </mxCell>
        <mxCell id="BQGbku_7ywCpy-vDLekk-101" value="Notes" style="swimlane;fontStyle=1;align=center;verticalAlign=top;childLayout=stackLayout;horizontal=1;startSize=26;horizontalStack=0;resizeParent=1;resizeParentMax=0;resizeLast=0;collapsible=1;marginBottom=0;whiteSpace=wrap;html=1;" vertex="1" parent="fIZk-Au_TW16lUrg5-2D-47">
          <mxGeometry x="36.232926829268294" y="137.35849056603774" width="186.0609756097561" height="88.79245283018868" as="geometry" />
        </mxCell>
        <mxCell id="BQGbku_7ywCpy-vDLekk-102" value="" style="line;strokeWidth=1;fillColor=none;align=left;verticalAlign=middle;spacingTop=-1;spacingLeft=3;spacingRight=3;rotatable=0;labelPosition=right;points=[];portConstraint=eastwest;strokeColor=inherit;" vertex="1" parent="BQGbku_7ywCpy-vDLekk-101">
          <mxGeometry y="26" width="186.0609756097561" height="7.849056603773585" as="geometry" />
        </mxCell>
        <mxCell id="BQGbku_7ywCpy-vDLekk-103" value="+&amp;nbsp;__init__(self, text: str, author: str, tags: list = None): None&lt;br&gt;+&amp;nbsp;__str__(self): str" style="text;strokeColor=none;fillColor=none;align=left;verticalAlign=top;spacingLeft=4;spacingRight=4;overflow=hidden;rotatable=0;points=[[0,0.5],[1,0.5]];portConstraint=eastwest;whiteSpace=wrap;html=1;" vertex="1" parent="BQGbku_7ywCpy-vDLekk-101">
          <mxGeometry y="33.84905660377358" width="186.0609756097561" height="54.943396226415096" as="geometry" />
        </mxCell>
        <mxCell id="BQGbku_7ywCpy-vDLekk-104" value="NotePrinter" style="swimlane;fontStyle=1;align=center;verticalAlign=top;childLayout=stackLayout;horizontal=1;startSize=26;horizontalStack=0;resizeParent=1;resizeParentMax=0;resizeLast=0;collapsible=1;marginBottom=0;whiteSpace=wrap;html=1;" vertex="1" parent="fIZk-Au_TW16lUrg5-2D-47">
          <mxGeometry x="307.9987804878049" y="166.78981132075472" width="186.0609756097561" height="59.35849056603773" as="geometry" />
        </mxCell>
        <mxCell id="BQGbku_7ywCpy-vDLekk-105" value="" style="line;strokeWidth=1;fillColor=none;align=left;verticalAlign=middle;spacingTop=-1;spacingLeft=3;spacingRight=3;rotatable=0;labelPosition=right;points=[];portConstraint=eastwest;strokeColor=inherit;" vertex="1" parent="BQGbku_7ywCpy-vDLekk-104">
          <mxGeometry y="26" width="186.0609756097561" height="7.849056603773585" as="geometry" />
        </mxCell>
        <mxCell id="BQGbku_7ywCpy-vDLekk-106" value="+ handle_console(notes): None" style="text;strokeColor=none;fillColor=none;align=left;verticalAlign=top;spacingLeft=4;spacingRight=4;overflow=hidden;rotatable=0;points=[[0,0.5],[1,0.5]];portConstraint=eastwest;whiteSpace=wrap;html=1;" vertex="1" parent="BQGbku_7ywCpy-vDLekk-104">
          <mxGeometry y="33.84905660377358" width="186.0609756097561" height="25.50943396226415" as="geometry" />
        </mxCell>
        <mxCell id="BQGbku_7ywCpy-vDLekk-109" value="&lt;b style=&quot;border-color: var(--border-color);&quot;&gt;&lt;i style=&quot;border-color: var(--border-color); font-weight: 400;&quot;&gt;&amp;lt;&amp;lt;Interface&amp;gt;&amp;gt;&lt;/i&gt;&lt;br&gt;Interface&lt;br&gt;&lt;br&gt;&lt;/b&gt;" style="swimlane;fontStyle=1;align=center;verticalAlign=top;childLayout=stackLayout;horizontal=1;startSize=40;horizontalStack=0;resizeParent=1;resizeParentMax=0;resizeLast=0;collapsible=1;marginBottom=0;whiteSpace=wrap;html=1;" vertex="1" parent="fIZk-Au_TW16lUrg5-2D-47">
          <mxGeometry x="323" y="50" width="156.02" height="77.84905660377359" as="geometry" />
        </mxCell>
        <mxCell id="BQGbku_7ywCpy-vDLekk-111" value="" style="line;strokeWidth=1;fillColor=none;align=left;verticalAlign=middle;spacingTop=-1;spacingLeft=3;spacingRight=3;rotatable=0;labelPosition=right;points=[];portConstraint=eastwest;strokeColor=inherit;" vertex="1" parent="BQGbku_7ywCpy-vDLekk-109">
          <mxGeometry y="40" width="156.02" height="7.849056603773585" as="geometry" />
        </mxCell>
        <mxCell id="BQGbku_7ywCpy-vDLekk-112" value="+handle_console():None" style="text;strokeColor=none;fillColor=none;align=left;verticalAlign=top;spacingLeft=4;spacingRight=4;overflow=hidden;rotatable=0;points=[[0,0.5],[1,0.5]];portConstraint=eastwest;whiteSpace=wrap;html=1;" vertex="1" parent="BQGbku_7ywCpy-vDLekk-109">
          <mxGeometry y="47.84905660377358" width="156.02" height="30" as="geometry" />
        </mxCell>
        <mxCell id="BQGbku_7ywCpy-vDLekk-113" style="edgeStyle=orthogonalEdgeStyle;rounded=0;orthogonalLoop=1;jettySize=auto;html=1;" edge="1" parent="fIZk-Au_TW16lUrg5-2D-47" source="BQGbku_7ywCpy-vDLekk-104" target="BQGbku_7ywCpy-vDLekk-109">
          <mxGeometry relative="1" as="geometry" />
        </mxCell>
        <mxCell id="BQGbku_7ywCpy-vDLekk-114" value="NoteManager" style="swimlane;fontStyle=1;align=center;verticalAlign=top;childLayout=stackLayout;horizontal=1;startSize=26;horizontalStack=0;resizeParent=1;resizeParentMax=0;resizeLast=0;collapsible=1;marginBottom=0;whiteSpace=wrap;html=1;" vertex="1" parent="fIZk-Au_TW16lUrg5-2D-47">
          <mxGeometry x="547.999756097561" y="146.6798113207547" width="225.23170731707316" height="196.7169811320755" as="geometry" />
        </mxCell>
        <mxCell id="BQGbku_7ywCpy-vDLekk-115" value="" style="line;strokeWidth=1;fillColor=none;align=left;verticalAlign=middle;spacingTop=-1;spacingLeft=3;spacingRight=3;rotatable=0;labelPosition=right;points=[];portConstraint=eastwest;strokeColor=inherit;" vertex="1" parent="BQGbku_7ywCpy-vDLekk-114">
          <mxGeometry y="26" width="225.23170731707316" height="7.849056603773585" as="geometry" />
        </mxCell>
        <mxCell id="BQGbku_7ywCpy-vDLekk-116" value="+&amp;nbsp;__init__(self): None&lt;br&gt;+&amp;nbsp;add_note_with_tags(self, author: str, text: str, tags: list): None&lt;br&gt;+&amp;nbsp;print_notes(self): None&lt;br&gt;+&amp;nbsp;save_notes(self, filename: str): None&lt;br&gt;+&amp;nbsp;load_notes(self, filename: str): list&lt;br&gt;+&amp;nbsp;edit_note(self, index: int, new_text: str = None,&amp;nbsp;new_tags: list = None): None&lt;br&gt;+ delete_note(self, index: int): None&lt;br&gt;+&amp;nbsp;&lt;span style=&quot;background-color: initial;&quot;&gt;update_notes_author(self,old_author: str, new_author: str,&lt;/span&gt;&lt;span style=&quot;background-color: initial;&quot;&gt;&amp;nbsp;filename: str): None&lt;/span&gt;&lt;span style=&quot;background-color: initial;&quot;&gt;&lt;br&gt;&lt;/span&gt;" style="text;strokeColor=none;fillColor=none;align=left;verticalAlign=top;spacingLeft=4;spacingRight=4;overflow=hidden;rotatable=0;points=[[0,0.5],[1,0.5]];portConstraint=eastwest;whiteSpace=wrap;html=1;" vertex="1" parent="BQGbku_7ywCpy-vDLekk-114">
          <mxGeometry y="33.84905660377358" width="225.23170731707316" height="162.8679245283019" as="geometry" />
        </mxCell>
        <mxCell id="BQGbku_7ywCpy-vDLekk-117" value="AddNote" style="swimlane;fontStyle=1;align=center;verticalAlign=top;childLayout=stackLayout;horizontal=1;startSize=26;horizontalStack=0;resizeParent=1;resizeParentMax=0;resizeLast=0;collapsible=1;marginBottom=0;whiteSpace=wrap;html=1;" vertex="1" parent="fIZk-Au_TW16lUrg5-2D-47">
          <mxGeometry x="36.232926829268294" y="255.0943396226415" width="186.0609756097561" height="59.35849056603773" as="geometry" />
        </mxCell>
        <mxCell id="BQGbku_7ywCpy-vDLekk-118" value="" style="line;strokeWidth=1;fillColor=none;align=left;verticalAlign=middle;spacingTop=-1;spacingLeft=3;spacingRight=3;rotatable=0;labelPosition=right;points=[];portConstraint=eastwest;strokeColor=inherit;" vertex="1" parent="BQGbku_7ywCpy-vDLekk-117">
          <mxGeometry y="26" width="186.0609756097561" height="7.849056603773585" as="geometry" />
        </mxCell>
        <mxCell id="BQGbku_7ywCpy-vDLekk-119" value="+ handle(address_book): None&lt;br&gt;" style="text;strokeColor=none;fillColor=none;align=left;verticalAlign=top;spacingLeft=4;spacingRight=4;overflow=hidden;rotatable=0;points=[[0,0.5],[1,0.5]];portConstraint=eastwest;whiteSpace=wrap;html=1;" vertex="1" parent="BQGbku_7ywCpy-vDLekk-117">
          <mxGeometry y="33.84905660377358" width="186.0609756097561" height="25.50943396226415" as="geometry" />
        </mxCell>
        <mxCell id="BQGbku_7ywCpy-vDLekk-120" value="ShowNotes" style="swimlane;fontStyle=1;align=center;verticalAlign=top;childLayout=stackLayout;horizontal=1;startSize=26;horizontalStack=0;resizeParent=1;resizeParentMax=0;resizeLast=0;collapsible=1;marginBottom=0;whiteSpace=wrap;html=1;" vertex="1" parent="fIZk-Au_TW16lUrg5-2D-47">
          <mxGeometry x="36.232926829268294" y="343.39622641509436" width="186.0609756097561" height="59.35849056603773" as="geometry" />
        </mxCell>
        <mxCell id="BQGbku_7ywCpy-vDLekk-121" value="" style="line;strokeWidth=1;fillColor=none;align=left;verticalAlign=middle;spacingTop=-1;spacingLeft=3;spacingRight=3;rotatable=0;labelPosition=right;points=[];portConstraint=eastwest;strokeColor=inherit;" vertex="1" parent="BQGbku_7ywCpy-vDLekk-120">
          <mxGeometry y="26" width="186.0609756097561" height="7.849056603773585" as="geometry" />
        </mxCell>
        <mxCell id="BQGbku_7ywCpy-vDLekk-122" value="+ handle(address_book): None&lt;br&gt;" style="text;strokeColor=none;fillColor=none;align=left;verticalAlign=top;spacingLeft=4;spacingRight=4;overflow=hidden;rotatable=0;points=[[0,0.5],[1,0.5]];portConstraint=eastwest;whiteSpace=wrap;html=1;" vertex="1" parent="BQGbku_7ywCpy-vDLekk-120">
          <mxGeometry y="33.84905660377358" width="186.0609756097561" height="25.50943396226415" as="geometry" />
        </mxCell>
        <mxCell id="BQGbku_7ywCpy-vDLekk-124" value="SearchNotes" style="swimlane;fontStyle=1;align=center;verticalAlign=top;childLayout=stackLayout;horizontal=1;startSize=26;horizontalStack=0;resizeParent=1;resizeParentMax=0;resizeLast=0;collapsible=1;marginBottom=0;whiteSpace=wrap;html=1;" vertex="1" parent="fIZk-Au_TW16lUrg5-2D-47">
          <mxGeometry x="36.232926829268294" y="431.6981132075472" width="186.0609756097561" height="59.35849056603773" as="geometry" />
        </mxCell>
        <mxCell id="BQGbku_7ywCpy-vDLekk-125" value="" style="line;strokeWidth=1;fillColor=none;align=left;verticalAlign=middle;spacingTop=-1;spacingLeft=3;spacingRight=3;rotatable=0;labelPosition=right;points=[];portConstraint=eastwest;strokeColor=inherit;" vertex="1" parent="BQGbku_7ywCpy-vDLekk-124">
          <mxGeometry y="26" width="186.0609756097561" height="7.849056603773585" as="geometry" />
        </mxCell>
        <mxCell id="BQGbku_7ywCpy-vDLekk-126" value="+ handle(address_book): None&lt;br&gt;" style="text;strokeColor=none;fillColor=none;align=left;verticalAlign=top;spacingLeft=4;spacingRight=4;overflow=hidden;rotatable=0;points=[[0,0.5],[1,0.5]];portConstraint=eastwest;whiteSpace=wrap;html=1;" vertex="1" parent="BQGbku_7ywCpy-vDLekk-124">
          <mxGeometry y="33.84905660377358" width="186.0609756097561" height="25.50943396226415" as="geometry" />
        </mxCell>
        <mxCell id="BQGbku_7ywCpy-vDLekk-127" value="EditNote" style="swimlane;fontStyle=1;align=center;verticalAlign=top;childLayout=stackLayout;horizontal=1;startSize=26;horizontalStack=0;resizeParent=1;resizeParentMax=0;resizeLast=0;collapsible=1;marginBottom=0;whiteSpace=wrap;html=1;" vertex="1" parent="fIZk-Au_TW16lUrg5-2D-47">
          <mxGeometry x="305.53170731707314" y="343.39622641509436" width="186.0609756097561" height="59.35849056603773" as="geometry" />
        </mxCell>
        <mxCell id="BQGbku_7ywCpy-vDLekk-128" value="" style="line;strokeWidth=1;fillColor=none;align=left;verticalAlign=middle;spacingTop=-1;spacingLeft=3;spacingRight=3;rotatable=0;labelPosition=right;points=[];portConstraint=eastwest;strokeColor=inherit;" vertex="1" parent="BQGbku_7ywCpy-vDLekk-127">
          <mxGeometry y="26" width="186.0609756097561" height="7.849056603773585" as="geometry" />
        </mxCell>
        <mxCell id="BQGbku_7ywCpy-vDLekk-129" value="+ handle(address_book): None&lt;br&gt;" style="text;strokeColor=none;fillColor=none;align=left;verticalAlign=top;spacingLeft=4;spacingRight=4;overflow=hidden;rotatable=0;points=[[0,0.5],[1,0.5]];portConstraint=eastwest;whiteSpace=wrap;html=1;" vertex="1" parent="BQGbku_7ywCpy-vDLekk-127">
          <mxGeometry y="33.84905660377358" width="186.0609756097561" height="25.50943396226415" as="geometry" />
        </mxCell>
        <mxCell id="BQGbku_7ywCpy-vDLekk-130" value="DeleteNote" style="swimlane;fontStyle=1;align=center;verticalAlign=top;childLayout=stackLayout;horizontal=1;startSize=26;horizontalStack=0;resizeParent=1;resizeParentMax=0;resizeLast=0;collapsible=1;marginBottom=0;whiteSpace=wrap;html=1;" vertex="1" parent="fIZk-Au_TW16lUrg5-2D-47">
          <mxGeometry x="305.53170731707314" y="431.6981132075472" width="186.0609756097561" height="59.35849056603773" as="geometry" />
        </mxCell>
        <mxCell id="BQGbku_7ywCpy-vDLekk-131" value="" style="line;strokeWidth=1;fillColor=none;align=left;verticalAlign=middle;spacingTop=-1;spacingLeft=3;spacingRight=3;rotatable=0;labelPosition=right;points=[];portConstraint=eastwest;strokeColor=inherit;" vertex="1" parent="BQGbku_7ywCpy-vDLekk-130">
          <mxGeometry y="26" width="186.0609756097561" height="7.849056603773585" as="geometry" />
        </mxCell>
        <mxCell id="BQGbku_7ywCpy-vDLekk-132" value="+ handle(address_book): None&lt;br&gt;" style="text;strokeColor=none;fillColor=none;align=left;verticalAlign=top;spacingLeft=4;spacingRight=4;overflow=hidden;rotatable=0;points=[[0,0.5],[1,0.5]];portConstraint=eastwest;whiteSpace=wrap;html=1;" vertex="1" parent="BQGbku_7ywCpy-vDLekk-130">
          <mxGeometry y="33.84905660377358" width="186.0609756097561" height="25.50943396226415" as="geometry" />
        </mxCell>
        <mxCell id="fIZk-Au_TW16lUrg5-2D-5" value="" style="group" vertex="1" connectable="0" parent="1">
          <mxGeometry x="16" y="410" width="794" height="210" as="geometry" />
        </mxCell>
        <mxCell id="BQGbku_7ywCpy-vDLekk-48" value="&lt;font style=&quot;font-size: 18px;&quot;&gt;&lt;b&gt;contact_classes.py&lt;/b&gt;&lt;/font&gt;" style="shape=module;align=left;spacingLeft=20;align=center;verticalAlign=top;whiteSpace=wrap;html=1;" vertex="1" parent="fIZk-Au_TW16lUrg5-2D-5">
          <mxGeometry x="-10" width="804" height="210" as="geometry" />
        </mxCell>
        <mxCell id="BQGbku_7ywCpy-vDLekk-49" value="AddContact" style="swimlane;fontStyle=1;align=center;verticalAlign=top;childLayout=stackLayout;horizontal=1;startSize=26;horizontalStack=0;resizeParent=1;resizeParentMax=0;resizeLast=0;collapsible=1;marginBottom=0;whiteSpace=wrap;html=1;" vertex="1" parent="fIZk-Au_TW16lUrg5-2D-5">
          <mxGeometry x="34.858536585365854" y="38.18181818181819" width="174.29268292682926" height="62.27272727272728" as="geometry" />
        </mxCell>
        <mxCell id="BQGbku_7ywCpy-vDLekk-51" value="" style="line;strokeWidth=1;fillColor=none;align=left;verticalAlign=middle;spacingTop=-1;spacingLeft=3;spacingRight=3;rotatable=0;labelPosition=right;points=[];portConstraint=eastwest;strokeColor=inherit;" vertex="1" parent="BQGbku_7ywCpy-vDLekk-49">
          <mxGeometry y="26" width="174.29268292682926" height="7.636363636363637" as="geometry" />
        </mxCell>
        <mxCell id="BQGbku_7ywCpy-vDLekk-52" value="+&amp;nbsp;handle(address_book): None" style="text;strokeColor=none;fillColor=none;align=left;verticalAlign=top;spacingLeft=4;spacingRight=4;overflow=hidden;rotatable=0;points=[[0,0.5],[1,0.5]];portConstraint=eastwest;whiteSpace=wrap;html=1;" vertex="1" parent="BQGbku_7ywCpy-vDLekk-49">
          <mxGeometry y="33.63636363636364" width="174.29268292682926" height="28.636363636363637" as="geometry" />
        </mxCell>
        <mxCell id="BQGbku_7ywCpy-vDLekk-53" value="EditContact" style="swimlane;fontStyle=1;align=center;verticalAlign=top;childLayout=stackLayout;horizontal=1;startSize=26;horizontalStack=0;resizeParent=1;resizeParentMax=0;resizeLast=0;collapsible=1;marginBottom=0;whiteSpace=wrap;html=1;" vertex="1" parent="fIZk-Au_TW16lUrg5-2D-5">
          <mxGeometry x="34.858536585365854" y="115.5" width="174.29268292682926" height="62.27272727272728" as="geometry" />
        </mxCell>
        <mxCell id="BQGbku_7ywCpy-vDLekk-54" value="" style="line;strokeWidth=1;fillColor=none;align=left;verticalAlign=middle;spacingTop=-1;spacingLeft=3;spacingRight=3;rotatable=0;labelPosition=right;points=[];portConstraint=eastwest;strokeColor=inherit;" vertex="1" parent="BQGbku_7ywCpy-vDLekk-53">
          <mxGeometry y="26" width="174.29268292682926" height="7.636363636363637" as="geometry" />
        </mxCell>
        <mxCell id="BQGbku_7ywCpy-vDLekk-55" value="+&amp;nbsp;handle(address_book): None" style="text;strokeColor=none;fillColor=none;align=left;verticalAlign=top;spacingLeft=4;spacingRight=4;overflow=hidden;rotatable=0;points=[[0,0.5],[1,0.5]];portConstraint=eastwest;whiteSpace=wrap;html=1;" vertex="1" parent="BQGbku_7ywCpy-vDLekk-53">
          <mxGeometry y="33.63636363636364" width="174.29268292682926" height="28.636363636363637" as="geometry" />
        </mxCell>
        <mxCell id="BQGbku_7ywCpy-vDLekk-56" value="DeleteContact" style="swimlane;fontStyle=1;align=center;verticalAlign=top;childLayout=stackLayout;horizontal=1;startSize=26;horizontalStack=0;resizeParent=1;resizeParentMax=0;resizeLast=0;collapsible=1;marginBottom=0;whiteSpace=wrap;html=1;" vertex="1" parent="fIZk-Au_TW16lUrg5-2D-5">
          <mxGeometry x="267.2487804878049" y="115.5" width="174.29268292682926" height="62.27272727272728" as="geometry" />
        </mxCell>
        <mxCell id="BQGbku_7ywCpy-vDLekk-57" value="" style="line;strokeWidth=1;fillColor=none;align=left;verticalAlign=middle;spacingTop=-1;spacingLeft=3;spacingRight=3;rotatable=0;labelPosition=right;points=[];portConstraint=eastwest;strokeColor=inherit;" vertex="1" parent="BQGbku_7ywCpy-vDLekk-56">
          <mxGeometry y="26" width="174.29268292682926" height="7.636363636363637" as="geometry" />
        </mxCell>
        <mxCell id="BQGbku_7ywCpy-vDLekk-58" value="+&amp;nbsp;handle(address_book): None" style="text;strokeColor=none;fillColor=none;align=left;verticalAlign=top;spacingLeft=4;spacingRight=4;overflow=hidden;rotatable=0;points=[[0,0.5],[1,0.5]];portConstraint=eastwest;whiteSpace=wrap;html=1;" vertex="1" parent="BQGbku_7ywCpy-vDLekk-56">
          <mxGeometry y="33.63636363636364" width="174.29268292682926" height="28.636363636363637" as="geometry" />
        </mxCell>
        <mxCell id="BQGbku_7ywCpy-vDLekk-59" value="DeletePhone" style="swimlane;fontStyle=1;align=center;verticalAlign=top;childLayout=stackLayout;horizontal=1;startSize=26;horizontalStack=0;resizeParent=1;resizeParentMax=0;resizeLast=0;collapsible=1;marginBottom=0;whiteSpace=wrap;html=1;" vertex="1" parent="fIZk-Au_TW16lUrg5-2D-5">
          <mxGeometry x="267.2487804878049" y="40.09090909090909" width="174.29268292682926" height="58.45454545454545" as="geometry" />
        </mxCell>
        <mxCell id="BQGbku_7ywCpy-vDLekk-60" value="" style="line;strokeWidth=1;fillColor=none;align=left;verticalAlign=middle;spacingTop=-1;spacingLeft=3;spacingRight=3;rotatable=0;labelPosition=right;points=[];portConstraint=eastwest;strokeColor=inherit;" vertex="1" parent="BQGbku_7ywCpy-vDLekk-59">
          <mxGeometry y="26" width="174.29268292682926" height="3.8181818181818183" as="geometry" />
        </mxCell>
        <mxCell id="BQGbku_7ywCpy-vDLekk-61" value="+&amp;nbsp;handle(address_book): None" style="text;strokeColor=none;fillColor=none;align=left;verticalAlign=top;spacingLeft=4;spacingRight=4;overflow=hidden;rotatable=0;points=[[0,0.5],[1,0.5]];portConstraint=eastwest;whiteSpace=wrap;html=1;" vertex="1" parent="BQGbku_7ywCpy-vDLekk-59">
          <mxGeometry y="29.81818181818182" width="174.29268292682926" height="28.636363636363637" as="geometry" />
        </mxCell>
        <mxCell id="BQGbku_7ywCpy-vDLekk-62" value="UpcomingBirthdays" style="swimlane;fontStyle=1;align=center;verticalAlign=top;childLayout=stackLayout;horizontal=1;startSize=26;horizontalStack=0;resizeParent=1;resizeParentMax=0;resizeLast=0;collapsible=1;marginBottom=0;whiteSpace=wrap;html=1;" vertex="1" parent="fIZk-Au_TW16lUrg5-2D-5">
          <mxGeometry x="509.3219512195122" y="62.04545454545455" width="232.390243902439" height="87.0909090909091" as="geometry" />
        </mxCell>
        <mxCell id="BQGbku_7ywCpy-vDLekk-64" value="+&amp;nbsp;handle(address_book): None&lt;br&gt;+&amp;nbsp;get_upcoming_birthdays(address_book: AddressBook, days_count: int) -&amp;gt; list" style="text;strokeColor=none;fillColor=none;align=left;verticalAlign=top;spacingLeft=4;spacingRight=4;overflow=hidden;rotatable=0;points=[[0,0.5],[1,0.5]];portConstraint=eastwest;whiteSpace=wrap;html=1;" vertex="1" parent="BQGbku_7ywCpy-vDLekk-62">
          <mxGeometry y="26" width="232.390243902439" height="53.45454545454545" as="geometry" />
        </mxCell>
        <mxCell id="BQGbku_7ywCpy-vDLekk-63" value="" style="line;strokeWidth=1;fillColor=none;align=left;verticalAlign=middle;spacingTop=-1;spacingLeft=3;spacingRight=3;rotatable=0;labelPosition=right;points=[];portConstraint=eastwest;strokeColor=inherit;" vertex="1" parent="BQGbku_7ywCpy-vDLekk-62">
          <mxGeometry y="79.45454545454545" width="232.390243902439" height="7.636363636363636" as="geometry" />
        </mxCell>
        <mxCell id="BQGbku_7ywCpy-vDLekk-65" style="edgeStyle=orthogonalEdgeStyle;rounded=0;orthogonalLoop=1;jettySize=auto;html=1;exitX=0.5;exitY=1;exitDx=0;exitDy=0;" edge="1" parent="fIZk-Au_TW16lUrg5-2D-5" source="BQGbku_7ywCpy-vDLekk-48" target="BQGbku_7ywCpy-vDLekk-48">
          <mxGeometry relative="1" as="geometry" />
        </mxCell>
        <mxCell id="fIZk-Au_TW16lUrg5-2D-6" value="" style="group" vertex="1" connectable="0" parent="1">
          <mxGeometry x="10" y="40" width="784" height="360" as="geometry" />
        </mxCell>
        <mxCell id="BQGbku_7ywCpy-vDLekk-47" value="&lt;b&gt;&lt;font style=&quot;font-size: 18px;&quot;&gt;book_classses.py&lt;/font&gt;&lt;/b&gt;" style="shape=module;align=left;spacingLeft=20;align=center;verticalAlign=top;whiteSpace=wrap;html=1;" vertex="1" parent="fIZk-Au_TW16lUrg5-2D-6">
          <mxGeometry width="784.0000000000001" height="360" as="geometry" />
        </mxCell>
        <mxCell id="BQGbku_7ywCpy-vDLekk-16" value="UserDict" style="swimlane;fontStyle=1;align=center;verticalAlign=top;childLayout=stackLayout;horizontal=1;startSize=26;horizontalStack=0;resizeParent=1;resizeParentMax=0;resizeLast=0;collapsible=1;marginBottom=0;whiteSpace=wrap;html=1;" vertex="1" parent="fIZk-Au_TW16lUrg5-2D-6">
          <mxGeometry x="105.17073170731709" y="36.92307692307693" width="152.97560975609758" height="81.38461538461539" as="geometry">
            <mxRectangle x="80" y="40" width="90" height="30" as="alternateBounds" />
          </mxGeometry>
        </mxCell>
        <mxCell id="BQGbku_7ywCpy-vDLekk-17" value="+ field: type" style="text;strokeColor=none;fillColor=none;align=left;verticalAlign=top;spacingLeft=4;spacingRight=4;overflow=hidden;rotatable=0;points=[[0,0.5],[1,0.5]];portConstraint=eastwest;whiteSpace=wrap;html=1;" vertex="1" parent="BQGbku_7ywCpy-vDLekk-16">
          <mxGeometry y="26" width="152.97560975609758" height="24" as="geometry" />
        </mxCell>
        <mxCell id="BQGbku_7ywCpy-vDLekk-18" value="" style="line;strokeWidth=1;fillColor=none;align=left;verticalAlign=middle;spacingTop=-1;spacingLeft=3;spacingRight=3;rotatable=0;labelPosition=right;points=[];portConstraint=eastwest;strokeColor=inherit;" vertex="1" parent="BQGbku_7ywCpy-vDLekk-16">
          <mxGeometry y="50" width="152.97560975609758" height="7.384615384615385" as="geometry" />
        </mxCell>
        <mxCell id="BQGbku_7ywCpy-vDLekk-19" value="+&amp;nbsp;__init__()  : None" style="text;strokeColor=none;fillColor=none;align=left;verticalAlign=top;spacingLeft=4;spacingRight=4;overflow=hidden;rotatable=0;points=[[0,0.5],[1,0.5]];portConstraint=eastwest;whiteSpace=wrap;html=1;" vertex="1" parent="BQGbku_7ywCpy-vDLekk-16">
          <mxGeometry y="57.38461538461539" width="152.97560975609758" height="24" as="geometry" />
        </mxCell>
        <mxCell id="BQGbku_7ywCpy-vDLekk-30" style="edgeStyle=orthogonalEdgeStyle;rounded=0;orthogonalLoop=1;jettySize=auto;html=1;" edge="1" parent="fIZk-Au_TW16lUrg5-2D-6" source="BQGbku_7ywCpy-vDLekk-24" target="BQGbku_7ywCpy-vDLekk-16">
          <mxGeometry relative="1" as="geometry" />
        </mxCell>
        <mxCell id="BQGbku_7ywCpy-vDLekk-24" value="AddressBook" style="swimlane;fontStyle=1;align=center;verticalAlign=top;childLayout=stackLayout;horizontal=1;startSize=26;horizontalStack=0;resizeParent=1;resizeParentMax=0;resizeLast=0;collapsible=1;marginBottom=0;whiteSpace=wrap;html=1;" vertex="1" parent="fIZk-Au_TW16lUrg5-2D-6">
          <mxGeometry x="28.682926829268297" y="147.6923076923077" width="305.95121951219517" height="205.0769230769231" as="geometry" />
        </mxCell>
        <mxCell id="BQGbku_7ywCpy-vDLekk-25" value="+ notes_manager: NoteManager()" style="text;strokeColor=none;fillColor=none;align=left;verticalAlign=top;spacingLeft=4;spacingRight=4;overflow=hidden;rotatable=0;points=[[0,0.5],[1,0.5]];portConstraint=eastwest;whiteSpace=wrap;html=1;" vertex="1" parent="BQGbku_7ywCpy-vDLekk-24">
          <mxGeometry y="26" width="305.95121951219517" height="22.153846153846153" as="geometry" />
        </mxCell>
        <mxCell id="BQGbku_7ywCpy-vDLekk-26" value="" style="line;strokeWidth=1;fillColor=none;align=left;verticalAlign=middle;spacingTop=-1;spacingLeft=3;spacingRight=3;rotatable=0;labelPosition=right;points=[];portConstraint=eastwest;strokeColor=inherit;" vertex="1" parent="BQGbku_7ywCpy-vDLekk-24">
          <mxGeometry y="48.15384615384615" width="305.95121951219517" height="7.384615384615385" as="geometry" />
        </mxCell>
        <mxCell id="BQGbku_7ywCpy-vDLekk-27" value="+ add_record(self, record: Record): None&lt;br&gt;+ add_note(self, text: str): None&lt;br&gt;+ print_notes(self): None&lt;br&gt;+ find(self, name: str): str&lt;br&gt;+&amp;nbsp;delete(self, name: str): None&lt;br&gt;+&amp;nbsp;update_contact_name(self, old_name: str, new_name: str,&lt;span style=&quot;background-color: initial;&quot;&gt;&amp;nbsp; &amp;nbsp; &amp;nbsp; &amp;nbsp;notes_manager: NoteManager): None&lt;br&gt;+ __iter__(self): AddressBookIterator&lt;br&gt;+ search_contact(self): None&lt;br&gt;+ search(self, query: str): (list, list)&lt;br&gt;&lt;/span&gt;" style="text;strokeColor=none;fillColor=none;align=left;verticalAlign=top;spacingLeft=4;spacingRight=4;overflow=hidden;rotatable=0;points=[[0,0.5],[1,0.5]];portConstraint=eastwest;whiteSpace=wrap;html=1;" vertex="1" parent="BQGbku_7ywCpy-vDLekk-24">
          <mxGeometry y="55.53846153846154" width="305.95121951219517" height="149.53846153846155" as="geometry" />
        </mxCell>
        <mxCell id="BQGbku_7ywCpy-vDLekk-31" value="AddressBookIterator" style="swimlane;fontStyle=1;align=center;verticalAlign=top;childLayout=stackLayout;horizontal=1;startSize=26;horizontalStack=0;resizeParent=1;resizeParentMax=0;resizeLast=0;collapsible=1;marginBottom=0;whiteSpace=wrap;html=1;" vertex="1" parent="fIZk-Au_TW16lUrg5-2D-6">
          <mxGeometry x="363.31707317073176" y="175.3846153846154" width="216.07804878048782" height="112.76923076923077" as="geometry" />
        </mxCell>
        <mxCell id="BQGbku_7ywCpy-vDLekk-33" value="" style="line;strokeWidth=1;fillColor=none;align=left;verticalAlign=middle;spacingTop=-1;spacingLeft=3;spacingRight=3;rotatable=0;labelPosition=right;points=[];portConstraint=eastwest;strokeColor=inherit;" vertex="1" parent="BQGbku_7ywCpy-vDLekk-31">
          <mxGeometry y="26" width="216.07804878048782" height="7.384615384615385" as="geometry" />
        </mxCell>
        <mxCell id="BQGbku_7ywCpy-vDLekk-34" value="+ __init__(self, address_book: AddressBook, items_per_page: int): None&lt;br&gt;+ __iter__(self): AddressBookIterator&lt;br&gt;+__next__(self) -&amp;gt; list[Record]&lt;br&gt;&lt;br&gt;" style="text;strokeColor=none;fillColor=none;align=left;verticalAlign=top;spacingLeft=4;spacingRight=4;overflow=hidden;rotatable=0;points=[[0,0.5],[1,0.5]];portConstraint=eastwest;whiteSpace=wrap;html=1;" vertex="1" parent="BQGbku_7ywCpy-vDLekk-31">
          <mxGeometry y="33.38461538461539" width="216.07804878048782" height="79.38461538461539" as="geometry" />
        </mxCell>
        <mxCell id="BQGbku_7ywCpy-vDLekk-36" value="LoadBook" style="swimlane;fontStyle=1;align=center;verticalAlign=top;childLayout=stackLayout;horizontal=1;startSize=26;horizontalStack=0;resizeParent=1;resizeParentMax=0;resizeLast=0;collapsible=1;marginBottom=0;whiteSpace=wrap;html=1;" vertex="1" parent="fIZk-Au_TW16lUrg5-2D-6">
          <mxGeometry x="611.9024390243903" y="147.6923076923077" width="152.97560975609758" height="57.38461538461539" as="geometry" />
        </mxCell>
        <mxCell id="BQGbku_7ywCpy-vDLekk-38" value="" style="line;strokeWidth=1;fillColor=none;align=left;verticalAlign=middle;spacingTop=-1;spacingLeft=3;spacingRight=3;rotatable=0;labelPosition=right;points=[];portConstraint=eastwest;strokeColor=inherit;" vertex="1" parent="BQGbku_7ywCpy-vDLekk-36">
          <mxGeometry y="26" width="152.97560975609758" height="7.384615384615385" as="geometry" />
        </mxCell>
        <mxCell id="BQGbku_7ywCpy-vDLekk-39" value="&amp;nbsp;+ handle(): AddressBook" style="text;strokeColor=none;fillColor=none;align=left;verticalAlign=top;spacingLeft=4;spacingRight=4;overflow=hidden;rotatable=0;points=[[0,0.5],[1,0.5]];portConstraint=eastwest;whiteSpace=wrap;html=1;" vertex="1" parent="BQGbku_7ywCpy-vDLekk-36">
          <mxGeometry y="33.38461538461539" width="152.97560975609758" height="24" as="geometry" />
        </mxCell>
        <mxCell id="BQGbku_7ywCpy-vDLekk-41" value="SaveBook" style="swimlane;fontStyle=1;align=center;verticalAlign=top;childLayout=stackLayout;horizontal=1;startSize=26;horizontalStack=0;resizeParent=1;resizeParentMax=0;resizeLast=0;collapsible=1;marginBottom=0;whiteSpace=wrap;html=1;" vertex="1" parent="fIZk-Au_TW16lUrg5-2D-6">
          <mxGeometry x="611.9024390243903" y="267.6923076923077" width="152.97560975609758" height="75.84615384615385" as="geometry" />
        </mxCell>
        <mxCell id="BQGbku_7ywCpy-vDLekk-42" value="" style="line;strokeWidth=1;fillColor=none;align=left;verticalAlign=middle;spacingTop=-1;spacingLeft=3;spacingRight=3;rotatable=0;labelPosition=right;points=[];portConstraint=eastwest;strokeColor=inherit;" vertex="1" parent="BQGbku_7ywCpy-vDLekk-41">
          <mxGeometry y="26" width="152.97560975609758" height="7.384615384615385" as="geometry" />
        </mxCell>
        <mxCell id="BQGbku_7ywCpy-vDLekk-43" value="+handle(address_book: AddressBook): None" style="text;strokeColor=none;fillColor=none;align=left;verticalAlign=top;spacingLeft=4;spacingRight=4;overflow=hidden;rotatable=0;points=[[0,0.5],[1,0.5]];portConstraint=eastwest;whiteSpace=wrap;html=1;" vertex="1" parent="BQGbku_7ywCpy-vDLekk-41">
          <mxGeometry y="33.38461538461539" width="152.97560975609758" height="42.46153846153847" as="geometry" />
        </mxCell>
        <mxCell id="fIZk-Au_TW16lUrg5-2D-7" value="&lt;font style=&quot;font-size: 36px;&quot;&gt;contacts/&lt;/font&gt;" style="text;strokeColor=none;fillColor=none;html=1;fontSize=24;fontStyle=1;verticalAlign=middle;align=center;" vertex="1" parent="1">
          <mxGeometry x="340" y="10" width="110" height="30" as="geometry" />
        </mxCell>
        <mxCell id="fIZk-Au_TW16lUrg5-2D-9" value="&lt;font style=&quot;font-size: 36px;&quot;&gt;helpers/&lt;/font&gt;" style="text;strokeColor=none;fillColor=none;html=1;fontSize=24;fontStyle=1;verticalAlign=middle;align=center;" vertex="1" parent="1">
          <mxGeometry x="350" y="1724" width="110" height="30" as="geometry" />
        </mxCell>
        <mxCell id="fIZk-Au_TW16lUrg5-2D-91" value="" style="group" vertex="1" connectable="0" parent="1">
          <mxGeometry y="630" width="811" height="530" as="geometry" />
        </mxCell>
        <mxCell id="BQGbku_7ywCpy-vDLekk-66" value="&lt;font style=&quot;font-size: 18px;&quot;&gt;&lt;b&gt;fields.py&lt;/b&gt;&lt;/font&gt;" style="shape=module;align=left;spacingLeft=20;align=center;verticalAlign=top;whiteSpace=wrap;html=1;" vertex="1" parent="fIZk-Au_TW16lUrg5-2D-91">
          <mxGeometry width="811" height="530" as="geometry" />
        </mxCell>
        <mxCell id="BQGbku_7ywCpy-vDLekk-93" value="Record" style="swimlane;fontStyle=1;align=center;verticalAlign=top;childLayout=stackLayout;horizontal=1;startSize=26;horizontalStack=0;resizeParent=1;resizeParentMax=0;resizeLast=0;collapsible=1;marginBottom=0;whiteSpace=wrap;html=1;" vertex="1" parent="fIZk-Au_TW16lUrg5-2D-91">
          <mxGeometry x="18.362264150943396" y="300" width="255.0314465408805" height="220" as="geometry" />
        </mxCell>
        <mxCell id="BQGbku_7ywCpy-vDLekk-94" value="" style="line;strokeWidth=1;fillColor=none;align=left;verticalAlign=middle;spacingTop=-1;spacingLeft=3;spacingRight=3;rotatable=0;labelPosition=right;points=[];portConstraint=eastwest;strokeColor=inherit;" vertex="1" parent="BQGbku_7ywCpy-vDLekk-93">
          <mxGeometry y="26" width="255.0314465408805" height="8" as="geometry" />
        </mxCell>
        <mxCell id="BQGbku_7ywCpy-vDLekk-95" value="+&amp;nbsp;__init__(self, value: str): None&lt;br&gt;+ add_phone(self, phone: str): None&lt;br&gt;+ add_email(self, email: str): None&lt;br&gt;+&amp;nbsp;edit_phone(self, old_phone: str = None, new_phone: str = None): None&lt;br&gt;+&amp;nbsp;edit_email(self, new_email: str): None&lt;br&gt;+&amp;nbsp;remove_phone(self, number: str): None&lt;br&gt;+&amp;nbsp;find_phone(self, number: str): str&lt;br&gt;+&amp;nbsp;set_birthday(self, birthday: str): None&lt;br&gt;+&amp;nbsp;set_address(self, address: str): None&lt;br&gt;+&amp;nbsp;days_to_birthday(self): int&lt;br&gt;+&amp;nbsp;__str__(self): str" style="text;strokeColor=none;fillColor=none;align=left;verticalAlign=top;spacingLeft=4;spacingRight=4;overflow=hidden;rotatable=0;points=[[0,0.5],[1,0.5]];portConstraint=eastwest;whiteSpace=wrap;html=1;" vertex="1" parent="BQGbku_7ywCpy-vDLekk-93">
          <mxGeometry y="34" width="255.0314465408805" height="186" as="geometry" />
        </mxCell>
        <mxCell id="BQGbku_7ywCpy-vDLekk-67" value="Field" style="swimlane;fontStyle=1;align=center;verticalAlign=top;childLayout=stackLayout;horizontal=1;startSize=26;horizontalStack=0;resizeParent=1;resizeParentMax=0;resizeLast=0;collapsible=1;marginBottom=0;whiteSpace=wrap;html=1;" vertex="1" parent="fIZk-Au_TW16lUrg5-2D-91">
          <mxGeometry x="325.80777358490565" y="40" width="182.2148679245283" height="79.99811320754716" as="geometry" />
        </mxCell>
        <mxCell id="BQGbku_7ywCpy-vDLekk-68" value="" style="line;strokeWidth=1;fillColor=none;align=left;verticalAlign=middle;spacingTop=-1;spacingLeft=3;spacingRight=3;rotatable=0;labelPosition=right;points=[];portConstraint=eastwest;strokeColor=inherit;" vertex="1" parent="BQGbku_7ywCpy-vDLekk-67">
          <mxGeometry y="26" width="182.2148679245283" height="7.698113207547169" as="geometry" />
        </mxCell>
        <mxCell id="BQGbku_7ywCpy-vDLekk-69" value="+__init__(self, value: str): None&lt;br&gt;+&amp;nbsp;__str__(self) -&amp;gt; str" style="text;strokeColor=none;fillColor=none;align=left;verticalAlign=top;spacingLeft=4;spacingRight=4;overflow=hidden;rotatable=0;points=[[0,0.5],[1,0.5]];portConstraint=eastwest;whiteSpace=wrap;html=1;" vertex="1" parent="BQGbku_7ywCpy-vDLekk-67">
          <mxGeometry y="33.698113207547166" width="182.2148679245283" height="46.3" as="geometry" />
        </mxCell>
        <mxCell id="BQGbku_7ywCpy-vDLekk-75" style="edgeStyle=orthogonalEdgeStyle;rounded=0;orthogonalLoop=1;jettySize=auto;html=1;exitX=0.5;exitY=0;exitDx=0;exitDy=0;" edge="1" parent="fIZk-Au_TW16lUrg5-2D-91" source="BQGbku_7ywCpy-vDLekk-70" target="BQGbku_7ywCpy-vDLekk-69">
          <mxGeometry relative="1" as="geometry">
            <Array as="points">
              <mxPoint x="124.17045712532597" y="144.7169811320755" />
              <mxPoint x="413.476886025464" y="144.7169811320755" />
            </Array>
          </mxGeometry>
        </mxCell>
        <mxCell id="BQGbku_7ywCpy-vDLekk-70" value="Name" style="swimlane;fontStyle=1;align=center;verticalAlign=top;childLayout=stackLayout;horizontal=1;startSize=26;horizontalStack=0;resizeParent=1;resizeParentMax=0;resizeLast=0;collapsible=1;marginBottom=0;whiteSpace=wrap;html=1;" vertex="1" parent="fIZk-Au_TW16lUrg5-2D-91">
          <mxGeometry x="26.760885105077467" y="154.33962264150944" width="175.3372296364473" height="101.0566037735849" as="geometry" />
        </mxCell>
        <mxCell id="BQGbku_7ywCpy-vDLekk-72" value="" style="line;strokeWidth=1;fillColor=none;align=left;verticalAlign=middle;spacingTop=-1;spacingLeft=3;spacingRight=3;rotatable=0;labelPosition=right;points=[];portConstraint=eastwest;strokeColor=inherit;" vertex="1" parent="BQGbku_7ywCpy-vDLekk-70">
          <mxGeometry y="26" width="175.3372296364473" height="7.69811320754717" as="geometry" />
        </mxCell>
        <mxCell id="BQGbku_7ywCpy-vDLekk-73" value="+&amp;nbsp;__init__(self, value: str): None&lt;br&gt;+ value(self): str&lt;br&gt;+ value(self, new_value): None" style="text;strokeColor=none;fillColor=none;align=left;verticalAlign=top;spacingLeft=4;spacingRight=4;overflow=hidden;rotatable=0;points=[[0,0.5],[1,0.5]];portConstraint=eastwest;whiteSpace=wrap;html=1;" vertex="1" parent="BQGbku_7ywCpy-vDLekk-70">
          <mxGeometry y="33.698113207547166" width="175.3372296364473" height="67.35849056603773" as="geometry" />
        </mxCell>
        <mxCell id="BQGbku_7ywCpy-vDLekk-80" style="edgeStyle=orthogonalEdgeStyle;rounded=0;orthogonalLoop=1;jettySize=auto;html=1;" edge="1" parent="fIZk-Au_TW16lUrg5-2D-91" source="BQGbku_7ywCpy-vDLekk-76" target="BQGbku_7ywCpy-vDLekk-67">
          <mxGeometry relative="1" as="geometry">
            <Array as="points">
              <mxPoint x="304.3781653627857" y="144.7169811320755" />
              <mxPoint x="413.476886025464" y="144.7169811320755" />
            </Array>
          </mxGeometry>
        </mxCell>
        <mxCell id="BQGbku_7ywCpy-vDLekk-76" value="Phone" style="swimlane;fontStyle=1;align=center;verticalAlign=top;childLayout=stackLayout;horizontal=1;startSize=26;horizontalStack=0;resizeParent=1;resizeParentMax=0;resizeLast=0;collapsible=1;marginBottom=0;whiteSpace=wrap;html=1;" vertex="1" parent="fIZk-Au_TW16lUrg5-2D-91">
          <mxGeometry x="211.8390719435496" y="154.33962264150944" width="185.0814213836478" height="139.99811320754716" as="geometry" />
        </mxCell>
        <mxCell id="BQGbku_7ywCpy-vDLekk-78" value="" style="line;strokeWidth=1;fillColor=none;align=left;verticalAlign=middle;spacingTop=-1;spacingLeft=3;spacingRight=3;rotatable=0;labelPosition=right;points=[];portConstraint=eastwest;strokeColor=inherit;" vertex="1" parent="BQGbku_7ywCpy-vDLekk-76">
          <mxGeometry y="26" width="185.0814213836478" height="7.698113207547169" as="geometry" />
        </mxCell>
        <mxCell id="BQGbku_7ywCpy-vDLekk-79" value="+&amp;nbsp;__init__(self, value: str): None&lt;br&gt;+&amp;nbsp;is_valid_phone(value: str): bool&lt;br&gt;+&amp;nbsp;value(self): str&lt;br&gt;+&amp;nbsp;value(self, new_value: str): None&lt;br&gt;+&amp;nbsp;__str__(self): str" style="text;strokeColor=none;fillColor=none;align=left;verticalAlign=top;spacingLeft=4;spacingRight=4;overflow=hidden;rotatable=0;points=[[0,0.5],[1,0.5]];portConstraint=eastwest;whiteSpace=wrap;html=1;" vertex="1" parent="BQGbku_7ywCpy-vDLekk-76">
          <mxGeometry y="33.698113207547166" width="185.0814213836478" height="106.3" as="geometry" />
        </mxCell>
        <mxCell id="BQGbku_7ywCpy-vDLekk-87" style="edgeStyle=orthogonalEdgeStyle;rounded=0;orthogonalLoop=1;jettySize=auto;html=1;" edge="1" parent="fIZk-Au_TW16lUrg5-2D-91" source="BQGbku_7ywCpy-vDLekk-81" target="BQGbku_7ywCpy-vDLekk-67">
          <mxGeometry relative="1" as="geometry">
            <Array as="points">
              <mxPoint x="528.4201810093573" y="144.7169811320755" />
              <mxPoint x="413.476886025464" y="144.7169811320755" />
            </Array>
          </mxGeometry>
        </mxCell>
        <mxCell id="BQGbku_7ywCpy-vDLekk-81" value="Email" style="swimlane;fontStyle=1;align=center;verticalAlign=top;childLayout=stackLayout;horizontal=1;startSize=26;horizontalStack=0;resizeParent=1;resizeParentMax=0;resizeLast=0;collapsible=1;marginBottom=0;whiteSpace=wrap;html=1;" vertex="1" parent="fIZk-Au_TW16lUrg5-2D-91">
          <mxGeometry x="435.8810875901211" y="154.33962264150944" width="185.07818683847213" height="135.69811320754715" as="geometry" />
        </mxCell>
        <mxCell id="BQGbku_7ywCpy-vDLekk-82" value="" style="line;strokeWidth=1;fillColor=none;align=left;verticalAlign=middle;spacingTop=-1;spacingLeft=3;spacingRight=3;rotatable=0;labelPosition=right;points=[];portConstraint=eastwest;strokeColor=inherit;" vertex="1" parent="BQGbku_7ywCpy-vDLekk-81">
          <mxGeometry y="26" width="185.07818683847213" height="7.698113207547169" as="geometry" />
        </mxCell>
        <mxCell id="BQGbku_7ywCpy-vDLekk-83" value="+&amp;nbsp;__init__(self, value: str): None&lt;br&gt;+&amp;nbsp;is_valid_email(value: str): bool&lt;br&gt;+&amp;nbsp;value(self): str&lt;br&gt;+&amp;nbsp;value(self, new_value: str): None&lt;br&gt;+&amp;nbsp;__str__(self): str" style="text;strokeColor=none;fillColor=none;align=left;verticalAlign=top;spacingLeft=4;spacingRight=4;overflow=hidden;rotatable=0;points=[[0,0.5],[1,0.5]];portConstraint=eastwest;whiteSpace=wrap;html=1;" vertex="1" parent="BQGbku_7ywCpy-vDLekk-81">
          <mxGeometry y="33.698113207547166" width="185.07818683847213" height="101.99999999999999" as="geometry" />
        </mxCell>
        <mxCell id="BQGbku_7ywCpy-vDLekk-88" style="edgeStyle=orthogonalEdgeStyle;rounded=0;orthogonalLoop=1;jettySize=auto;html=1;" edge="1" parent="fIZk-Au_TW16lUrg5-2D-91" source="BQGbku_7ywCpy-vDLekk-84" target="BQGbku_7ywCpy-vDLekk-67">
          <mxGeometry relative="1" as="geometry">
            <Array as="points">
              <mxPoint x="713.4983678478294" y="144.7169811320755" />
              <mxPoint x="413.476886025464" y="144.7169811320755" />
            </Array>
          </mxGeometry>
        </mxCell>
        <mxCell id="BQGbku_7ywCpy-vDLekk-84" value="Birthday" style="swimlane;fontStyle=1;align=center;verticalAlign=top;childLayout=stackLayout;horizontal=1;startSize=26;horizontalStack=0;resizeParent=1;resizeParentMax=0;resizeLast=0;collapsible=1;marginBottom=0;whiteSpace=wrap;html=1;" vertex="1" parent="fIZk-Au_TW16lUrg5-2D-91">
          <mxGeometry x="630.7002316306182" y="154.33962264150944" width="165.59627243442245" height="106.83018867924528" as="geometry" />
        </mxCell>
        <mxCell id="BQGbku_7ywCpy-vDLekk-85" value="" style="line;strokeWidth=1;fillColor=none;align=left;verticalAlign=middle;spacingTop=-1;spacingLeft=3;spacingRight=3;rotatable=0;labelPosition=right;points=[];portConstraint=eastwest;strokeColor=inherit;" vertex="1" parent="BQGbku_7ywCpy-vDLekk-84">
          <mxGeometry y="26" width="165.59627243442245" height="7.69811320754717" as="geometry" />
        </mxCell>
        <mxCell id="BQGbku_7ywCpy-vDLekk-86" value="+&amp;nbsp;__init__(self, value: str): None&lt;br&gt;+&amp;nbsp;value(self): str&lt;br&gt;+&amp;nbsp;formatted_value(self): str" style="text;strokeColor=none;fillColor=none;align=left;verticalAlign=top;spacingLeft=4;spacingRight=4;overflow=hidden;rotatable=0;points=[[0,0.5],[1,0.5]];portConstraint=eastwest;whiteSpace=wrap;html=1;" vertex="1" parent="BQGbku_7ywCpy-vDLekk-84">
          <mxGeometry y="33.698113207547166" width="165.59627243442245" height="73.13207547169812" as="geometry" />
        </mxCell>
        <mxCell id="BQGbku_7ywCpy-vDLekk-92" style="edgeStyle=orthogonalEdgeStyle;rounded=0;orthogonalLoop=1;jettySize=auto;html=1;" edge="1" parent="fIZk-Au_TW16lUrg5-2D-91" source="BQGbku_7ywCpy-vDLekk-89" target="BQGbku_7ywCpy-vDLekk-67">
          <mxGeometry relative="1" as="geometry">
            <Array as="points">
              <mxPoint x="413.1509433962264" y="170" />
              <mxPoint x="413.1509433962264" y="170" />
            </Array>
          </mxGeometry>
        </mxCell>
        <mxCell id="BQGbku_7ywCpy-vDLekk-89" value="Address" style="swimlane;fontStyle=1;align=center;verticalAlign=top;childLayout=stackLayout;horizontal=1;startSize=26;horizontalStack=0;resizeParent=1;resizeParentMax=0;resizeLast=0;collapsible=1;marginBottom=0;whiteSpace=wrap;html=1;" vertex="1" parent="fIZk-Au_TW16lUrg5-2D-91">
          <mxGeometry x="320.9377926062279" y="308.3018867924528" width="185.07818683847213" height="97.20754716981132" as="geometry" />
        </mxCell>
        <mxCell id="BQGbku_7ywCpy-vDLekk-90" value="" style="line;strokeWidth=1;fillColor=none;align=left;verticalAlign=middle;spacingTop=-1;spacingLeft=3;spacingRight=3;rotatable=0;labelPosition=right;points=[];portConstraint=eastwest;strokeColor=inherit;" vertex="1" parent="BQGbku_7ywCpy-vDLekk-89">
          <mxGeometry y="26" width="185.07818683847213" height="7.69811320754717" as="geometry" />
        </mxCell>
        <mxCell id="BQGbku_7ywCpy-vDLekk-91" value="+&amp;nbsp;__init__(self, value: str): None&lt;br&gt;+&amp;nbsp;value(self): str&lt;br&gt;+&amp;nbsp;value(self, new_value: str): None" style="text;strokeColor=none;fillColor=none;align=left;verticalAlign=top;spacingLeft=4;spacingRight=4;overflow=hidden;rotatable=0;points=[[0,0.5],[1,0.5]];portConstraint=eastwest;whiteSpace=wrap;html=1;" vertex="1" parent="BQGbku_7ywCpy-vDLekk-89">
          <mxGeometry y="33.698113207547166" width="185.07818683847213" height="63.509433962264154" as="geometry" />
        </mxCell>
        <mxCell id="fIZk-Au_TW16lUrg5-2D-109" value="" style="group" vertex="1" connectable="0" parent="1">
          <mxGeometry x="568" y="1760" width="226" height="240" as="geometry" />
        </mxCell>
        <mxCell id="fIZk-Au_TW16lUrg5-2D-48" value="&lt;font style=&quot;font-size: 18px;&quot;&gt;&lt;b&gt;help.py&lt;/b&gt;&lt;/font&gt;" style="shape=module;align=left;spacingLeft=20;align=center;verticalAlign=top;whiteSpace=wrap;html=1;" vertex="1" parent="fIZk-Au_TW16lUrg5-2D-109">
          <mxGeometry width="226" height="240" as="geometry" />
        </mxCell>
        <mxCell id="fIZk-Au_TW16lUrg5-2D-49" value="SortFiles" style="swimlane;fontStyle=1;align=center;verticalAlign=top;childLayout=stackLayout;horizontal=1;startSize=26;horizontalStack=0;resizeParent=1;resizeParentMax=0;resizeLast=0;collapsible=1;marginBottom=0;whiteSpace=wrap;html=1;" vertex="1" parent="fIZk-Au_TW16lUrg5-2D-109">
          <mxGeometry x="48.13026615969582" y="160" width="137.49049429657794" height="60" as="geometry" />
        </mxCell>
        <mxCell id="fIZk-Au_TW16lUrg5-2D-50" value="" style="line;strokeWidth=1;fillColor=none;align=left;verticalAlign=middle;spacingTop=-1;spacingLeft=3;spacingRight=3;rotatable=0;labelPosition=right;points=[];portConstraint=eastwest;strokeColor=inherit;" vertex="1" parent="fIZk-Au_TW16lUrg5-2D-49">
          <mxGeometry y="26" width="137.49049429657794" height="8" as="geometry" />
        </mxCell>
        <mxCell id="fIZk-Au_TW16lUrg5-2D-51" value="+ handle_console(): None" style="text;strokeColor=none;fillColor=none;align=left;verticalAlign=top;spacingLeft=4;spacingRight=4;overflow=hidden;rotatable=0;points=[[0,0.5],[1,0.5]];portConstraint=eastwest;whiteSpace=wrap;html=1;" vertex="1" parent="fIZk-Au_TW16lUrg5-2D-49">
          <mxGeometry y="34" width="137.49049429657794" height="26" as="geometry" />
        </mxCell>
        <mxCell id="fIZk-Au_TW16lUrg5-2D-92" value="&lt;b style=&quot;border-color: var(--border-color);&quot;&gt;&lt;i style=&quot;border-color: var(--border-color); font-weight: 400;&quot;&gt;&amp;lt;&amp;lt;Interface&amp;gt;&amp;gt;&lt;/i&gt;&lt;br&gt;Interface&lt;br&gt;&lt;br&gt;&lt;/b&gt;" style="swimlane;fontStyle=1;align=center;verticalAlign=top;childLayout=stackLayout;horizontal=1;startSize=40;horizontalStack=0;resizeParent=1;resizeParentMax=0;resizeLast=0;collapsible=1;marginBottom=0;whiteSpace=wrap;html=1;" vertex="1" parent="fIZk-Au_TW16lUrg5-2D-109">
          <mxGeometry x="49.840304182509534" y="50" width="134.07041825095058" height="77.84905660377359" as="geometry" />
        </mxCell>
        <mxCell id="fIZk-Au_TW16lUrg5-2D-93" value="" style="line;strokeWidth=1;fillColor=none;align=left;verticalAlign=middle;spacingTop=-1;spacingLeft=3;spacingRight=3;rotatable=0;labelPosition=right;points=[];portConstraint=eastwest;strokeColor=inherit;" vertex="1" parent="fIZk-Au_TW16lUrg5-2D-92">
          <mxGeometry y="40" width="134.07041825095058" height="7.849056603773585" as="geometry" />
        </mxCell>
        <mxCell id="fIZk-Au_TW16lUrg5-2D-94" value="+handle_console():None" style="text;strokeColor=none;fillColor=none;align=left;verticalAlign=top;spacingLeft=4;spacingRight=4;overflow=hidden;rotatable=0;points=[[0,0.5],[1,0.5]];portConstraint=eastwest;whiteSpace=wrap;html=1;" vertex="1" parent="fIZk-Au_TW16lUrg5-2D-92">
          <mxGeometry y="47.84905660377358" width="134.07041825095058" height="30" as="geometry" />
        </mxCell>
        <mxCell id="fIZk-Au_TW16lUrg5-2D-95" style="edgeStyle=orthogonalEdgeStyle;rounded=0;orthogonalLoop=1;jettySize=auto;html=1;" edge="1" parent="fIZk-Au_TW16lUrg5-2D-109" source="fIZk-Au_TW16lUrg5-2D-49" target="fIZk-Au_TW16lUrg5-2D-92">
          <mxGeometry relative="1" as="geometry" />
        </mxCell>
        <mxCell id="fIZk-Au_TW16lUrg5-2D-110" value="" style="group" vertex="1" connectable="0" parent="1">
          <mxGeometry x="303" y="1780" width="220" height="130" as="geometry" />
        </mxCell>
        <mxCell id="fIZk-Au_TW16lUrg5-2D-96" value="&lt;font style=&quot;font-size: 18px;&quot;&gt;&lt;b&gt;interface.py&lt;/b&gt;&lt;/font&gt;" style="shape=module;align=left;spacingLeft=20;align=center;verticalAlign=top;whiteSpace=wrap;html=1;" vertex="1" parent="fIZk-Au_TW16lUrg5-2D-110">
          <mxGeometry width="220" height="130" as="geometry" />
        </mxCell>
        <mxCell id="fIZk-Au_TW16lUrg5-2D-104" value="&lt;b style=&quot;border-color: var(--border-color);&quot;&gt;&lt;i style=&quot;border-color: var(--border-color); font-weight: 400;&quot;&gt;&amp;lt;&amp;lt;Interface&amp;gt;&amp;gt;&lt;/i&gt;&lt;br&gt;Interface&lt;br&gt;&lt;br&gt;&lt;/b&gt;" style="swimlane;fontStyle=1;align=center;verticalAlign=top;childLayout=stackLayout;horizontal=1;startSize=40;horizontalStack=0;resizeParent=1;resizeParentMax=0;resizeLast=0;collapsible=1;marginBottom=0;whiteSpace=wrap;html=1;" vertex="1" parent="fIZk-Au_TW16lUrg5-2D-110">
          <mxGeometry x="44.74448669201522" y="42.15000000000009" width="130.5110266159696" height="77.84905660377359" as="geometry" />
        </mxCell>
        <mxCell id="fIZk-Au_TW16lUrg5-2D-105" value="" style="line;strokeWidth=1;fillColor=none;align=left;verticalAlign=middle;spacingTop=-1;spacingLeft=3;spacingRight=3;rotatable=0;labelPosition=right;points=[];portConstraint=eastwest;strokeColor=inherit;" vertex="1" parent="fIZk-Au_TW16lUrg5-2D-104">
          <mxGeometry y="40" width="130.5110266159696" height="7.849056603773585" as="geometry" />
        </mxCell>
        <mxCell id="fIZk-Au_TW16lUrg5-2D-106" value="+handle_console():None" style="text;strokeColor=none;fillColor=none;align=left;verticalAlign=top;spacingLeft=4;spacingRight=4;overflow=hidden;rotatable=0;points=[[0,0.5],[1,0.5]];portConstraint=eastwest;whiteSpace=wrap;html=1;" vertex="1" parent="fIZk-Au_TW16lUrg5-2D-104">
          <mxGeometry y="47.84905660377358" width="130.5110266159696" height="30" as="geometry" />
        </mxCell>
        <mxCell id="fIZk-Au_TW16lUrg5-2D-111" value="&lt;font style=&quot;font-size: 36px;&quot;&gt;output/&lt;/font&gt;" style="text;strokeColor=none;fillColor=none;html=1;fontSize=24;fontStyle=1;verticalAlign=middle;align=center;" vertex="1" parent="1">
          <mxGeometry x="347" y="2030" width="110" height="30" as="geometry" />
        </mxCell>
        <mxCell id="fIZk-Au_TW16lUrg5-2D-113" value="" style="group" vertex="1" connectable="0" parent="1">
          <mxGeometry x="30" y="1780" width="210" height="120" as="geometry" />
        </mxCell>
        <mxCell id="BQGbku_7ywCpy-vDLekk-134" value="&lt;font style=&quot;font-size: 18px;&quot;&gt;&lt;b&gt;file_sorter.py&lt;/b&gt;&lt;/font&gt;" style="shape=module;align=left;spacingLeft=20;align=center;verticalAlign=top;whiteSpace=wrap;html=1;" vertex="1" parent="fIZk-Au_TW16lUrg5-2D-113">
          <mxGeometry width="210" height="120" as="geometry" />
        </mxCell>
        <mxCell id="fIZk-Au_TW16lUrg5-2D-41" value="SortFiles" style="swimlane;fontStyle=1;align=center;verticalAlign=top;childLayout=stackLayout;horizontal=1;startSize=26;horizontalStack=0;resizeParent=1;resizeParentMax=0;resizeLast=0;collapsible=1;marginBottom=0;whiteSpace=wrap;html=1;" vertex="1" parent="fIZk-Au_TW16lUrg5-2D-113">
          <mxGeometry x="35" y="45" width="160" height="60" as="geometry" />
        </mxCell>
        <mxCell id="fIZk-Au_TW16lUrg5-2D-43" value="" style="line;strokeWidth=1;fillColor=none;align=left;verticalAlign=middle;spacingTop=-1;spacingLeft=3;spacingRight=3;rotatable=0;labelPosition=right;points=[];portConstraint=eastwest;strokeColor=inherit;" vertex="1" parent="fIZk-Au_TW16lUrg5-2D-41">
          <mxGeometry y="26" width="160" height="8" as="geometry" />
        </mxCell>
        <mxCell id="fIZk-Au_TW16lUrg5-2D-44" value="+ handle(): None" style="text;strokeColor=none;fillColor=none;align=left;verticalAlign=top;spacingLeft=4;spacingRight=4;overflow=hidden;rotatable=0;points=[[0,0.5],[1,0.5]];portConstraint=eastwest;whiteSpace=wrap;html=1;" vertex="1" parent="fIZk-Au_TW16lUrg5-2D-41">
          <mxGeometry y="34" width="160" height="26" as="geometry" />
        </mxCell>
        <mxCell id="fIZk-Au_TW16lUrg5-2D-119" value="" style="group" vertex="1" connectable="0" parent="1">
          <mxGeometry x="280" y="2080" width="253.5" height="240" as="geometry" />
        </mxCell>
        <mxCell id="fIZk-Au_TW16lUrg5-2D-120" value="&lt;font style=&quot;font-size: 18px;&quot;&gt;&lt;b&gt;print_table.py&lt;/b&gt;&lt;/font&gt;" style="shape=module;align=left;spacingLeft=20;align=center;verticalAlign=top;whiteSpace=wrap;html=1;" vertex="1" parent="fIZk-Au_TW16lUrg5-2D-119">
          <mxGeometry width="253.5" height="240" as="geometry" />
        </mxCell>
        <mxCell id="fIZk-Au_TW16lUrg5-2D-121" value="PrintTable" style="swimlane;fontStyle=1;align=center;verticalAlign=top;childLayout=stackLayout;horizontal=1;startSize=26;horizontalStack=0;resizeParent=1;resizeParentMax=0;resizeLast=0;collapsible=1;marginBottom=0;whiteSpace=wrap;html=1;" vertex="1" parent="fIZk-Au_TW16lUrg5-2D-119">
          <mxGeometry x="53.992886597938146" y="140" width="154.2168556701031" height="90" as="geometry" />
        </mxCell>
        <mxCell id="fIZk-Au_TW16lUrg5-2D-122" value="" style="line;strokeWidth=1;fillColor=none;align=left;verticalAlign=middle;spacingTop=-1;spacingLeft=3;spacingRight=3;rotatable=0;labelPosition=right;points=[];portConstraint=eastwest;strokeColor=inherit;" vertex="1" parent="fIZk-Au_TW16lUrg5-2D-121">
          <mxGeometry y="26" width="154.2168556701031" height="8" as="geometry" />
        </mxCell>
        <mxCell id="fIZk-Au_TW16lUrg5-2D-123" value="+handle_console (address_book, text_title: str): None" style="text;strokeColor=none;fillColor=none;align=left;verticalAlign=top;spacingLeft=4;spacingRight=4;overflow=hidden;rotatable=0;points=[[0,0.5],[1,0.5]];portConstraint=eastwest;whiteSpace=wrap;html=1;" vertex="1" parent="fIZk-Au_TW16lUrg5-2D-121">
          <mxGeometry y="34" width="154.2168556701031" height="56" as="geometry" />
        </mxCell>
        <mxCell id="fIZk-Au_TW16lUrg5-2D-124" value="&lt;b style=&quot;border-color: var(--border-color);&quot;&gt;&lt;i style=&quot;border-color: var(--border-color); font-weight: 400;&quot;&gt;&amp;lt;&amp;lt;Interface&amp;gt;&amp;gt;&lt;/i&gt;&lt;br&gt;Interface&lt;br&gt;&lt;br&gt;&lt;/b&gt;" style="swimlane;fontStyle=1;align=center;verticalAlign=top;childLayout=stackLayout;horizontal=1;startSize=40;horizontalStack=0;resizeParent=1;resizeParentMax=0;resizeLast=0;collapsible=1;marginBottom=0;whiteSpace=wrap;html=1;" vertex="1" parent="fIZk-Au_TW16lUrg5-2D-119">
          <mxGeometry x="55.9049429657795" y="40" width="150.38429657794677" height="77.84905660377359" as="geometry" />
        </mxCell>
        <mxCell id="fIZk-Au_TW16lUrg5-2D-125" value="" style="line;strokeWidth=1;fillColor=none;align=left;verticalAlign=middle;spacingTop=-1;spacingLeft=3;spacingRight=3;rotatable=0;labelPosition=right;points=[];portConstraint=eastwest;strokeColor=inherit;" vertex="1" parent="fIZk-Au_TW16lUrg5-2D-124">
          <mxGeometry y="40" width="150.38429657794677" height="7.849056603773585" as="geometry" />
        </mxCell>
        <mxCell id="fIZk-Au_TW16lUrg5-2D-126" value="+handle_console():None" style="text;strokeColor=none;fillColor=none;align=left;verticalAlign=top;spacingLeft=4;spacingRight=4;overflow=hidden;rotatable=0;points=[[0,0.5],[1,0.5]];portConstraint=eastwest;whiteSpace=wrap;html=1;" vertex="1" parent="fIZk-Au_TW16lUrg5-2D-124">
          <mxGeometry y="47.84905660377358" width="150.38429657794677" height="30" as="geometry" />
        </mxCell>
        <mxCell id="fIZk-Au_TW16lUrg5-2D-127" style="edgeStyle=orthogonalEdgeStyle;rounded=0;orthogonalLoop=1;jettySize=auto;html=1;" edge="1" parent="fIZk-Au_TW16lUrg5-2D-119" source="fIZk-Au_TW16lUrg5-2D-121" target="fIZk-Au_TW16lUrg5-2D-124">
          <mxGeometry relative="1" as="geometry" />
        </mxCell>
      </root>
    </mxGraphModel>
  </diagram>
</mxfile>
